<svg xmlns="http://www.w3.org/2000/svg" width="14mm" height="20mm" viewBox="0 0 14 20"><path d="M3.5,0 H13.2 A0.8,0.8 0 0 1 14,0.8 V16.5 A3.5,3.5 0 0 1 10.5,20 H0.8 A0.8,0.8 0 0 1 0,19.2 V3.5 A3.5,3.5 0 0 1 3.5,0 Z" fill="#ffffff" stroke="#00000022" stroke-width="0.15"/><rect x="0.9" y="0.9" width="12.2" height="18.2" rx="0.4" fill="none" stroke="#00000018" stroke-width="0.12" stroke-dasharray="0.6 0.5"/><g transform="translate(4.304,4.500) scale(0.006065)"><g transform="translate(-21.934533,1833.713520) scale(0.100000,-0.100000)"
fill="#231f20" stroke="none">
<path d="M232 18327 c-14 -16 -18 -13485 -4 -13499 4 -4 1198 -7 2653 -6
l2644 3 3 1089 c1 796 -1 1092 -9 1102 -10 12 -420 14 -2525 14 -1466 0 -2514
4 -2514 9 0 11 24 17 130 31 90 12 195 34 233 49 12 5 47 17 77 26 51 15 108
39 249 102 330 148 686 470 916 828 61 94 162 289 190 365 63 176 84 256 128
490 l21 115 4 3530 c2 2354 0 3578 -7 3675 -16 227 -62 436 -146 670 -111 309
-430 733 -713 949 -244 185 -567 345 -792 392 -187 38 -252 49 -360 59 -69 6
-134 14 -146 16 -11 3 -26 -1 -32 -9z"/>
<path d="M3806 13701 c-8 -12 -8 -2179 -1 -2192 4 -6 887 -9 2478 -9 1360 0
2485 0 2502 0 17 0 25 -4 20 -9 -12 -10 -136 -41 -168 -41 -13 0 -43 -6 -68
-14 -24 -7 -71 -21 -104 -31 -218 -65 -504 -206 -649 -320 -212 -167 -340
-296 -472 -475 -100 -136 -122 -169 -159 -235 -156 -283 -236 -527 -274 -835
-19 -147 -15 -7243 4 -7395 67 -559 351 -1069 805 -1451 284 -238 696 -421
1047 -464 47 -6 94 -15 104 -20 10 -6 67 -10 128 -10 l111 0 0 6755 0 6755
-2649 0 c-1508 0 -2652 -4 -2655 -9z"/>
</g></g></svg>